# File created by Blade
# Date/Time:  Wed Apr 08 14:47:20 2015
# Frame Rate: 120.000 fps
#------------------------------------------------------
:FULLY-SPECIFIED
:DEGREES
1969
root 3.816557 32.170103 -15.088304 18.250141 4.183771 -1.147019
Spine -12.452697 -5.520774 -2.311330
Head 4.322324 -10.907077 6.076181
LeftShoulder -15.798624 46.960155 7.954558
LeftArm 54.998441 9.697932 -75.460665
LeftForeArm -4.786876 -0.000000 123.542040
LeftHand 10.286346 0.000000 4.543770
LeftHandThumb1 -26.253704 0.000000 33.147579
RightShoulder -3.382906 -8.806365 -18.357698
RightArm 20.135415 -34.403195 80.897107
RightForeArm 5.810269 -0.000000 116.502225
RightHand 11.603645 -0.000000 -1.197049
RightHandThumb1 -24.326973 -0.000000 -32.862282
LeftUpLeg -35.078898 -1.824705 0.351159
LeftLeg 18.460386 -0.000000 -0.000000
LeftFoot -4.995728 1.702491 -25.940257
LeftToeBase 2.754183 -0.000000 -0.000000
RightUpLeg -9.002477 6.151277 1.373942
RightLeg 24.177325 -0.000000 -0.000000
RightFoot -19.383999 -17.109126 12.215717
RightToeBase -5.968937 -0.000000 0.000000
1970
root 3.758585 32.144255 -15.165740 18.223478 4.603590 -1.101151
Spine -12.398981 -5.449722 -2.352717
Head 4.284550 -11.077264 6.038785
LeftShoulder -15.774121 46.960624 7.981172
LeftArm 54.998029 9.619647 -75.508193
LeftForeArm -4.901536 0.000000 123.584485
LeftHand 10.300377 -0.000000 4.689054
LeftHandThumb1 -26.253704 0.000000 33.147579
RightShoulder -3.380664 -8.833222 -18.409516
RightArm 20.186811 -34.384398 80.849825
RightForeArm 5.867620 -0.000000 116.555977
RightHand 11.546051 -0.000000 -1.030371
RightHandThumb1 -24.326973 -0.000000 -32.862282
LeftUpLeg -35.357674 -1.914712 0.401798
LeftLeg 18.699081 -0.000000 -0.000000
LeftFoot -4.827869 1.437817 -26.059006
LeftToeBase 2.751495 -0.000000 -0.000000
RightUpLeg -8.816454 6.287498 1.324721
RightLeg 23.648592 -0.000000 -0.000000
RightFoot -18.951733 -16.677065 11.727956
RightToeBase -6.855291 -0.000000 0.000000
1971
root 3.698523 32.117247 -15.249279 18.214178 4.995334 -1.046666
Spine -12.349118 -5.387190 -2.412890
Head 4.246130 -11.204278 6.011455
LeftShoulder -15.828206 46.966945 7.959015
LeftArm 55.036365 9.535395 -75.554041
LeftForeArm -4.733372 -0.000000 123.564985
LeftHand 10.283654 -0.000000 5.515574
LeftHandThumb1 -26.253704 0.000000 33.147579
RightShoulder -3.350550 -8.733766 -18.455988
RightArm 20.148283 -34.404814 80.845683
RightForeArm 5.793622 -0.000000 116.594520
RightHand 11.486818 -0.000000 -1.097528
RightHandThumb1 -24.326973 -0.000000 -32.862282
LeftUpLeg -35.668192 -1.970552 0.428718
LeftLeg 18.945198 -0.000000 -0.000000
LeftFoot -4.648226 1.193055 -26.137037
LeftToeBase 2.779093 -0.000000 -0.000000
RightUpLeg -8.647352 6.430723 1.256924
RightLeg 23.076162 -0.000000 -0.000000
RightFoot -18.619584 -16.151198 11.308867
RightToeBase -8.075623 -0.000000 0.000000
1972
root 3.636964 32.088339 -15.336148 18.207461 5.391956 -0.997941
Spine -12.303898 -5.277060 -2.470075
Head 4.212551 -11.362226 5.947448
LeftShoulder -15.781959 46.954406 8.010660
LeftArm 55.016891 9.449154 -75.619122
LeftForeArm -5.024522 -0.000000 123.607766
LeftHand 10.264903 -0.000000 6.177195
LeftHandThumb1 -26.253704 0.000000 33.147579
RightShoulder -3.341880 -8.726398 -18.502988
RightArm 20.229678 -34.443090 80.784924
RightForeArm 5.884635 -0.000000 116.590974
RightHand 11.653869 -0.000000 -1.351136
RightHandThumb1 -24.326973 -0.000000 -32.862282
LeftUpLeg -35.993396 -2.066851 0.478203
LeftLeg 19.197741 -0.000000 -0.000000
LeftFoot -4.484339 1.005023 -26.185651
LeftToeBase 2.755494 -0.000000 -0.000000
RightUpLeg -8.468851 6.594088 1.210398
RightLeg 22.451969 -0.000000 -0.000000
RightFoot -18.588145 -15.806123 11.204215
RightToeBase -8.630049 -0.000000 0.000000
1973
root 3.574471 32.058969 -15.426001 18.188641 5.788677 -0.946422
Spine -12.236354 -5.176890 -2.520134
Head 4.175247 -11.525695 5.869825
LeftShoulder -15.758272 46.914541 8.014136
LeftArm 54.954895 9.341689 -75.661150
LeftForeArm -5.074029 -0.000000 123.650095
LeftHand 10.181827 0.000000 6.019397
LeftHandThumb1 -26.253704 0.000000 33.147579
RightShoulder -3.326256 -8.671689 -18.537750
RightArm 20.267244 -34.451924 80.730273
RightForeArm 5.925686 -0.000000 116.608905
RightHand 11.625072 -0.000000 -1.401146
RightHandThumb1 -24.326973 -0.000000 -32.862282
LeftUpLeg -36.306211 -2.177458 0.519474
LeftLeg 19.433522 -0.000000 -0.000000
LeftFoot -4.307056 0.881432 -26.067445
LeftToeBase 2.739135 -0.000000 -0.000000
RightUpLeg -8.279835 6.771004 1.164417
RightLeg 21.882971 -0.000000 -0.000000
RightFoot -18.769094 -15.389638 11.417779
RightToeBase -8.984211 -0.000000 0.000000
1974
root 3.510416 32.027782 -15.519049 18.153277 6.182331 -0.904416
Spine -12.145996 -5.045143 -2.573641
Head 4.136272 -11.688492 5.808402
LeftShoulder -15.741621 46.911793 8.019624
LeftArm 54.927546 9.225922 -75.743707
LeftForeArm -4.752139 -0.000000 123.647978
LeftHand 10.216798 0.000000 5.388463
LeftHandThumb1 -26.253704 0.000000 33.147579
RightShoulder -3.316249 -8.618049 -18.556897
RightArm 20.335252 -34.452381 80.615459
RightForeArm 5.852982 -0.000000 116.625709
RightHand 11.551005 -0.000000 -1.468208
RightHandThumb1 -24.326973 -0.000000 -32.862282
LeftUpLeg -36.619825 -2.336819 0.590752
LeftLeg 19.685503 -0.000000 -0.000000
LeftFoot -4.105429 0.793751 -25.904068
LeftToeBase 2.433552 -0.000000 -0.000000
RightUpLeg -8.080040 6.841884 1.159876
RightLeg 21.345504 -0.000000 -0.000000
RightFoot -18.834846 -15.054342 11.366638
RightToeBase -9.832090 -0.000000 0.000000
1975
root 3.446826 31.996349 -15.615441 18.129177 6.580826 -0.871342
Spine -12.066232 -4.907365 -2.595881
Head 4.097687 -11.859906 5.698486
LeftShoulder -15.746822 46.882450 7.974600
LeftArm 54.892829 9.110890 -75.801447
LeftForeArm -4.557537 0.000000 123.614713
LeftHand 10.423884 -0.000000 4.863774
LeftHandThumb1 -26.253704 0.000000 33.147579
RightShoulder -3.316164 -8.508839 -18.603445
RightArm 20.370069 -34.498987 80.526735
RightForeArm 5.954284 0.000000 116.579736
RightHand 11.696830 0.000000 -1.677972
RightHandThumb1 -24.326973 -0.000000 -32.862282
LeftUpLeg -36.957393 -2.561826 0.696085
LeftLeg 19.945691 -0.000000 -0.000000
LeftFoot -3.926671 0.804760 -25.591311
LeftToeBase 2.203572 -0.000000 -0.000000
RightUpLeg -7.893005 6.903082 1.180103
RightLeg 20.869574 -0.000000 -0.000000
RightFoot -18.951824 -14.716178 11.418656
RightToeBase -10.181910 -0.000000 0.000000
1976
root 3.379995 31.964378 -15.712745 18.109372 6.958734 -0.843620
Spine -11.992194 -4.754704 -2.627490
Head 4.063141 -12.012587 5.602190
LeftShoulder -15.766485 46.891377 7.944411
LeftArm 54.874301 9.055403 -75.832792
LeftForeArm -4.572485 0.000000 123.634455
LeftHand 10.428821 -0.000000 4.938081
LeftHandThumb1 -26.253704 0.000000 33.147579
RightShoulder -3.305935 -8.427194 -18.625546
RightArm 20.400078 -34.495580 80.423179
RightForeArm 5.897592 0.000000 116.587451
RightHand 11.639236 -0.000000 -1.743777
RightHandThumb1 -24.326973 -0.000000 -32.862282
LeftUpLeg -37.296776 -2.791964 0.806873
LeftLeg 20.189224 -0.000000 -0.000000
LeftFoot -3.730036 0.887170 -25.170308
LeftToeBase 1.747309 -0.000000 -0.000000
RightUpLeg -7.692447 6.991263 1.217462
RightLeg 20.382753 -0.000000 -0.000000
RightFoot -19.046328 -14.346226 11.519848
RightToeBase -10.497629 -0.000000 0.000000
1977
root 3.315944 31.931460 -15.811992 18.073356 7.319289 -0.807526
Spine -11.898555 -4.584659 -2.651604
Head 4.027854 -12.163227 5.469267
LeftShoulder -15.785306 46.876775 7.890264
LeftArm 54.812998 8.985024 -75.899777
LeftForeArm -4.606301 -0.000000 123.643554
LeftHand 10.426798 -0.000000 4.942189
LeftHandThumb1 -26.253704 0.000000 33.147579
RightShoulder -3.304315 -8.369715 -18.665154
RightArm 20.485394 -34.536861 80.316093
RightForeArm 5.914031 -0.000000 116.548901
RightHand 11.688770 -0.000000 -1.964924
RightHandThumb1 -24.326973 -0.000000 -32.862282
LeftUpLeg -37.609864 -3.071439 0.924425
LeftLeg 20.407811 -0.000000 -0.000000
LeftFoot -3.556982 1.052439 -24.803504
LeftToeBase 1.287570 -0.000000 -0.000000
RightUpLeg -7.479574 7.051498 1.240779
RightLeg 19.911708 -0.000000 -0.000000
RightFoot -19.155599 -13.987486 11.636404
RightToeBase -10.729187 -0.000000 0.000000
1978
root 3.247413 31.898286 -15.914597 18.023936 7.703526 -0.833858
Spine -11.793048 -4.431052 -2.596897
Head 3.994236 -12.312121 5.324552
LeftShoulder -15.834416 46.867232 7.804853
LeftArm 54.760697 8.933037 -75.933836
LeftForeArm -4.594568 -0.000000 123.650059
LeftHand 10.434822 -0.000000 4.985122
LeftHandThumb1 -26.253704 0.000000 33.147579
RightShoulder -3.255542 -8.257998 -18.716163
RightArm 20.491295 -34.462143 80.265145
RightForeArm 5.624831 -0.000000 116.543045
RightHand 11.489641 -0.000000 -1.713407
RightHandThumb1 -24.326973 -0.000000 -32.862282
LeftUpLeg -37.942019 -3.346099 1.112862
LeftLeg 20.660280 -0.000000 -0.000000
LeftFoot -3.421292 1.213394 -24.527701
LeftToeBase 0.677860 -0.000000 -0.000000
RightUpLeg -7.241661 7.099680 1.364933
RightLeg 19.360138 -0.000000 -0.000000
RightFoot -19.291676 -13.797629 11.619593
RightToeBase -11.117009 -0.000000 0.000000
1979
root 3.180420 31.867208 -16.017379 17.945671 8.047057 -0.853596
Spine -11.614198 -4.227656 -2.597106
Head 3.880787 -12.489568 5.165844
LeftShoulder -15.949552 46.840490 7.714577
LeftArm 54.708035 8.880599 -76.080018
LeftForeArm -5.251371 0.000000 123.620044
LeftHand 10.688305 0.000000 4.334553
LeftHandThumb1 -26.253704 0.000000 33.147579
RightShoulder -3.283695 -8.155842 -18.685238
RightArm 20.543096 -34.413003 80.100272
RightForeArm 5.517296 -0.000000 116.570851
RightHand 11.316960 0.000000 -1.474100
RightHandThumb1 -24.326973 -0.000000 -32.862282
LeftUpLeg -38.214998 -3.619123 1.294459
LeftLeg 20.853674 -0.000000 -0.000000
LeftFoot -3.292484 1.420930 -24.303732
LeftToeBase 0.187355 -0.000000 -0.000000
RightUpLeg -6.955293 7.185637 1.479597
RightLeg 18.739593 -0.000000 -0.000000
RightFoot -19.391438 -13.624596 11.706584
RightToeBase -11.470994 -0.000000 0.000000
1980
root 3.113099 31.835473 -16.122834 17.863597 8.391714 -0.899227
Spine -11.469338 -4.044855 -2.524330
Head 3.857290 -12.625320 5.008964
LeftShoulder -16.066649 46.882265 7.583242
LeftArm 54.699638 8.880768 -76.130682
LeftForeArm -5.121455 -0.000000 123.601968
LeftHand 10.693404 0.000000 4.462868
LeftHandThumb1 -26.253704 0.000000 33.147579
RightShoulder -3.219374 -8.180497 -18.710280
RightArm 20.759298 -34.419093 79.849484
RightForeArm 5.510584 -0.000000 116.510520
RightHand 11.536444 -0.000000 -1.698009
RightHandThumb1 -24.326973 -0.000000 -32.862282
LeftUpLeg -38.513020 -3.827949 1.470515
LeftLeg 21.089492 -0.000000 -0.000000
LeftFoot -3.183678 1.565131 -24.153589
LeftToeBase 0.075939 -0.000000 -0.000000
RightUpLeg -6.684918 7.221919 1.630855
RightLeg 18.121338 -0.000000 -0.000000
RightFoot -19.524292 -13.487957 11.763113
RightToeBase -11.712080 -0.000000 0.000000
